<svg width="305.6" height="94.504" viewBox="0 0 305.6 94.504" xmlns="http://www.w3.org/2000/svg"><g id="svgGroup" stroke-linecap="round" fill-rule="evenodd" font-size="9pt" stroke="#000" stroke-width="0.25mm" fill="#000" style="stroke:#000;stroke-width:0.25mm;fill:#000"><path d="M 20.533 94.282 A 80.403 80.403 0 0 0 26.3 94.502 A 69.269 69.269 0 0 0 38.603 93.459 A 50.469 50.469 0 0 0 53.7 88.302 Q 65.2 82.102 71.2 70.852 A 49.177 49.177 0 0 0 75.882 57.812 A 64.237 64.237 0 0 0 77.2 44.502 A 47.266 47.266 0 0 0 76.408 35.638 A 34.125 34.125 0 0 0 72.4 24.702 Q 67.6 16.502 58.7 12.252 A 37.121 37.121 0 0 0 58.386 12.104 Q 49.586 8.002 37.6 8.002 A 63.482 63.482 0 0 0 31.052 8.346 A 74.873 74.873 0 0 0 19.7 10.452 A 60.609 60.609 0 0 0 13.586 12.404 A 48.405 48.405 0 0 0 3.5 17.602 Q 2.52 18.272 1.833 19.009 A 6.479 6.479 0 0 0 0.8 20.452 Q 0.294 21.433 0.108 22.754 A 11.847 11.847 0 0 0 0 24.402 A 7.581 7.581 0 0 0 0.118 25.769 A 5.558 5.558 0 0 0 1 27.952 A 4.25 4.25 0 0 0 1.13 28.13 Q 1.594 28.733 2.196 29.051 A 3.178 3.178 0 0 0 3.7 29.402 A 4.761 4.761 0 0 0 4.674 29.303 A 4.973 4.973 0 0 0 6.5 28.502 A 53.079 53.079 0 0 1 10.166 26.322 A 60.449 60.449 0 0 1 20.65 21.902 Q 28.5 19.402 36.5 19.402 A 44.559 44.559 0 0 1 38.66 19.453 Q 42.809 19.655 46.278 20.646 A 22.204 22.204 0 0 1 55.7 25.902 Q 60.189 30.193 61.715 36.837 A 33.348 33.348 0 0 1 62.5 44.302 A 69.53 69.53 0 0 1 62.46 46.689 Q 61.909 62.726 53.85 72.602 A 26.451 26.451 0 0 1 49.44 76.889 Q 41.205 83.202 27.7 83.202 Q 25.681 83.202 23.888 83.117 A 57.223 57.223 0 0 1 20.9 82.902 A 231.397 231.397 0 0 1 21.936 73.576 A 273.753 273.753 0 0 1 24.6 57.252 A 353.503 353.503 0 0 1 24.831 56.071 Q 27.315 43.447 29.8 35.802 Q 30.138 34.789 30.285 33.903 A 7.933 7.933 0 0 0 30.4 32.602 Q 30.4 29.202 24.3 29.202 A 20.212 20.212 0 0 0 22.792 29.256 Q 20.413 29.434 18.8 30.202 A 4.897 4.897 0 0 0 16.761 31.978 A 6.199 6.199 0 0 0 16 33.702 A 292.923 292.923 0 0 0 15.885 34.124 A 317.568 317.568 0 0 0 9.7 61.752 Q 7.1 76.302 6.4 86.202 A 15.971 15.971 0 0 0 6.39 86.412 Q 6.302 88.482 6.795 89.869 A 4.328 4.328 0 0 0 7.7 91.402 Q 9.2 93.002 13.2 93.502 A 134.944 134.944 0 0 0 14.163 93.63 Q 17.51 94.064 20.533 94.282 Z" id="0" vector-effect="non-scaling-stroke"/><path d="M 136.559 64.087 A 2.055 2.055 0 0 0 134.9 63.302 A 4.008 4.008 0 0 0 134.633 63.311 Q 134.128 63.345 133.5 63.502 A 89.607 89.607 0 0 1 130.493 64.235 Q 125.876 65.274 122.3 65.502 A 27.657 27.657 0 0 0 121.953 63.141 A 21.86 21.86 0 0 0 116.85 52.552 A 14.981 14.981 0 0 0 110.438 48.219 A 17.814 17.814 0 0 0 104.6 47.302 Q 98.4 47.302 93.3 50.652 A 21.614 21.614 0 0 0 89.651 53.666 A 24.072 24.072 0 0 0 85.3 59.952 A 27.572 27.572 0 0 0 83.207 65.945 A 34.036 34.036 0 0 0 82.4 73.502 A 28.272 28.272 0 0 0 82.403 73.938 A 24.553 24.553 0 0 0 84.6 83.902 Q 86.8 88.702 91.05 91.602 A 16.069 16.069 0 0 0 96.222 93.906 A 20.705 20.705 0 0 0 101.3 94.502 A 18.053 18.053 0 0 0 107.851 93.307 A 19.822 19.822 0 0 0 114 89.452 A 22.918 22.918 0 0 0 118.906 83.141 A 28.513 28.513 0 0 0 121.5 76.002 A 52.306 52.306 0 0 0 125.91 75.635 A 42.89 42.89 0 0 0 134.7 73.602 A 3.589 3.589 0 0 0 136.952 71.568 Q 137.591 70.191 137.6 67.967 A 15.748 15.748 0 0 0 137.6 67.902 A 10.564 10.564 0 0 0 137.584 67.318 Q 137.544 66.591 137.401 65.968 A 5.429 5.429 0 0 0 136.9 64.602 A 3.16 3.16 0 0 0 136.559 64.087 Z M 104.7 57.902 L 104.2 57.902 A 7.373 7.373 0 0 0 98.682 60.347 A 11.395 11.395 0 0 0 97.55 61.752 A 13.286 13.286 0 0 0 95.81 65.48 Q 94.9 68.5 94.9 72.602 A 22.559 22.559 0 0 0 95.105 75.749 Q 95.564 78.997 97.05 81.002 A 8.845 8.845 0 0 0 98.467 82.531 A 5.53 5.53 0 0 0 102.1 83.902 A 7.088 7.088 0 0 0 107.126 81.839 A 9.727 9.727 0 0 0 107.65 81.302 A 10.806 10.806 0 0 0 109.436 78.53 Q 110.011 77.274 110.4 75.741 A 22.846 22.846 0 0 0 110.8 73.802 Q 107.7 71.702 106.05 68.302 Q 104.4 64.902 104.4 61.102 Q 104.4 59.502 104.7 57.902 Z" id="1" vector-effect="non-scaling-stroke"/><path d="M 181.659 64.087 A 2.055 2.055 0 0 0 180 63.302 A 4.008 4.008 0 0 0 179.733 63.311 Q 179.228 63.345 178.6 63.502 A 89.607 89.607 0 0 1 175.593 64.235 Q 170.976 65.274 167.4 65.502 A 27.657 27.657 0 0 0 167.053 63.141 A 21.86 21.86 0 0 0 161.95 52.552 A 14.981 14.981 0 0 0 155.538 48.219 A 17.814 17.814 0 0 0 149.7 47.302 Q 143.5 47.302 138.4 50.652 A 21.614 21.614 0 0 0 134.751 53.666 A 24.072 24.072 0 0 0 130.4 59.952 A 27.572 27.572 0 0 0 128.307 65.945 A 34.036 34.036 0 0 0 127.5 73.502 A 28.272 28.272 0 0 0 127.503 73.938 A 24.553 24.553 0 0 0 129.7 83.902 Q 131.9 88.702 136.15 91.602 A 16.069 16.069 0 0 0 141.322 93.906 A 20.705 20.705 0 0 0 146.4 94.502 A 18.053 18.053 0 0 0 152.951 93.307 A 19.822 19.822 0 0 0 159.1 89.452 A 22.918 22.918 0 0 0 164.006 83.141 A 28.513 28.513 0 0 0 166.6 76.002 A 52.306 52.306 0 0 0 171.01 75.635 A 42.89 42.89 0 0 0 179.8 73.602 A 3.589 3.589 0 0 0 182.052 71.568 Q 182.691 70.191 182.7 67.967 A 15.748 15.748 0 0 0 182.7 67.902 A 10.564 10.564 0 0 0 182.684 67.318 Q 182.644 66.591 182.501 65.968 A 5.429 5.429 0 0 0 182 64.602 A 3.16 3.16 0 0 0 181.659 64.087 Z M 149.8 57.902 L 149.3 57.902 A 7.373 7.373 0 0 0 143.782 60.347 A 11.395 11.395 0 0 0 142.65 61.752 A 13.286 13.286 0 0 0 140.91 65.48 Q 140 68.5 140 72.602 A 22.559 22.559 0 0 0 140.205 75.749 Q 140.664 78.997 142.15 81.002 A 8.845 8.845 0 0 0 143.567 82.531 A 5.53 5.53 0 0 0 147.2 83.902 A 7.088 7.088 0 0 0 152.226 81.839 A 9.727 9.727 0 0 0 152.75 81.302 A 10.806 10.806 0 0 0 154.536 78.53 Q 155.111 77.274 155.5 75.741 A 22.846 22.846 0 0 0 155.9 73.802 Q 152.8 71.702 151.15 68.302 Q 149.5 64.902 149.5 61.102 Q 149.5 59.502 149.8 57.902 Z" id="2" vector-effect="non-scaling-stroke"/><path d="M 232.65 72.494 A 2.225 2.225 0 0 0 230.9 71.702 A 3.137 3.137 0 0 0 229.04 72.319 A 4.764 4.764 0 0 0 228.2 73.102 Q 223.5 78.702 220.7 81.102 Q 219.322 82.283 217.968 82.883 A 6.792 6.792 0 0 1 215.2 83.502 Q 213.1 83.502 211.75 81.002 A 8.713 8.713 0 0 1 211.242 79.853 Q 210.319 77.326 210 72.702 A 221.206 221.206 0 0 0 216.38 60.964 A 180.382 180.382 0 0 0 224.7 41.902 A 117.974 117.974 0 0 0 226.877 35.411 Q 228.463 30.158 229.292 25.429 A 56.471 56.471 0 0 0 230.2 15.702 Q 230.2 10.764 229.087 7.389 A 12.507 12.507 0 0 0 227.35 3.902 A 12.179 12.179 0 0 0 226.508 2.869 A 8.247 8.247 0 0 0 220.2 0.002 A 10.253 10.253 0 0 0 216.815 0.565 Q 212.172 2.177 208.651 8.394 A 41.239 41.239 0 0 0 206.15 13.752 A 87.772 87.772 0 0 0 204.676 17.844 Q 202.572 24.16 201.117 31.539 A 160.294 160.294 0 0 0 198.9 46.902 Q 191.5 47.702 185.55 52.052 Q 179.6 56.402 176.2 63.252 Q 172.8 70.102 172.8 78.102 A 22.532 22.532 0 0 0 173.246 82.696 A 15.744 15.744 0 0 0 176.75 89.952 Q 180.7 94.502 186.8 94.502 A 17.536 17.536 0 0 0 189.323 94.326 A 13.563 13.563 0 0 0 194.15 92.702 Q 197.3 90.902 201.5 85.602 Q 202.641 88.14 204.074 89.954 A 11.054 11.054 0 0 0 213.1 94.502 Q 217.9 94.502 222.8 90.952 A 44.897 44.897 0 0 0 224.162 89.925 A 48.936 48.936 0 0 0 231.8 82.402 A 6.749 6.749 0 0 0 232.703 81.053 Q 233.7 79.1 233.7 76.202 Q 233.7 74.971 233.443 74.05 A 4.376 4.376 0 0 0 232.95 72.902 A 3.165 3.165 0 0 0 232.65 72.494 Z M 219.1 9.802 A 1.501 1.501 0 0 0 218.076 10.292 Q 217.019 11.304 215.962 14.406 A 41.745 41.745 0 0 0 215.3 16.552 Q 213.4 23.302 212.05 34.202 Q 210.7 45.102 210.1 57.002 A 187.855 187.855 0 0 0 215.514 44.036 Q 220.334 31.044 221.139 21.493 A 43.99 43.99 0 0 0 221.3 17.802 Q 221.3 14.002 220.65 11.902 A 8.693 8.693 0 0 0 220.398 11.188 Q 219.904 9.979 219.285 9.825 A 0.758 0.758 0 0 0 219.1 9.802 Z M 190.3 84.402 A 5.087 5.087 0 0 0 192.438 83.911 Q 193.139 83.59 193.84 83.057 A 9.612 9.612 0 0 0 194.1 82.852 A 12.592 12.592 0 0 0 195.244 81.775 Q 196.414 80.544 197.874 78.548 A 65.559 65.559 0 0 0 198.9 77.102 Q 197.9 71.702 197.9 65.002 Q 197.9 62.602 198.1 57.202 A 15.62 15.62 0 0 0 191.085 61.757 A 21.405 21.405 0 0 0 188.95 64.552 Q 185.3 70.202 185.3 77.102 A 15.776 15.776 0 0 0 185.491 79.675 Q 186.249 84.237 190.024 84.396 A 6.571 6.571 0 0 0 190.3 84.402 Z" id="3" vector-effect="non-scaling-stroke"/><path d="M 265.25 72.494 A 2.225 2.225 0 0 0 263.5 71.702 A 3.137 3.137 0 0 0 261.64 72.319 A 4.764 4.764 0 0 0 260.8 73.102 A 114.077 114.077 0 0 1 259.231 74.927 Q 255.478 79.198 252.9 81.152 A 11.432 11.432 0 0 1 250.326 82.629 A 12.07 12.07 0 0 1 245.7 83.502 A 7.266 7.266 0 0 1 245.143 83.481 A 5.299 5.299 0 0 1 241.5 81.752 A 5.382 5.382 0 0 1 241.189 81.378 Q 239.83 79.592 239.2 75.902 A 173.045 173.045 0 0 0 245.804 66.248 A 144.803 144.803 0 0 0 257.1 44.802 Q 263.7 29.102 263.7 17.202 Q 263.7 12.014 262.626 8.331 A 15.715 15.715 0 0 0 260.95 4.452 A 11.661 11.661 0 0 0 259.847 2.94 A 8.163 8.163 0 0 0 253.4 0.002 Q 244.9 0.002 238.75 11.202 A 69.439 69.439 0 0 0 238.342 11.956 Q 235.307 17.649 233.027 24.449 A 113.014 113.014 0 0 0 229.45 38.002 Q 226.3 53.602 226.3 65.802 A 68.156 68.156 0 0 0 226.459 70.537 Q 226.762 74.89 227.645 78.602 A 33.079 33.079 0 0 0 230.55 86.502 A 19.197 19.197 0 0 0 231.643 88.317 Q 235.863 94.502 243.6 94.502 A 23.66 23.66 0 0 0 243.625 94.502 A 20.024 20.024 0 0 0 255.05 91.102 A 38.929 38.929 0 0 0 258.732 88.285 A 46.036 46.036 0 0 0 264.4 82.402 A 6.749 6.749 0 0 0 265.303 81.053 Q 266.3 79.1 266.3 76.202 Q 266.3 74.971 266.043 74.05 A 4.376 4.376 0 0 0 265.55 72.902 A 3.165 3.165 0 0 0 265.25 72.494 Z M 247.018 15.499 A 55.086 55.086 0 0 0 246 18.202 Q 243.1 26.502 240.9 38.802 A 156.343 156.343 0 0 0 238.82 55.242 A 134.668 134.668 0 0 0 238.5 62.402 A 133.727 133.727 0 0 0 247.364 45.191 A 116.899 116.899 0 0 0 249.8 38.952 Q 253.551 28.458 253.952 19.6 A 46.382 46.382 0 0 0 254 17.502 A 31.509 31.509 0 0 0 253.917 15.114 Q 253.519 9.902 251.2 9.902 Q 249.311 9.902 247.018 15.499 Z" id="4" vector-effect="non-scaling-stroke"/><path d="M 304.55 72.494 A 2.225 2.225 0 0 0 302.8 71.702 A 3.137 3.137 0 0 0 300.94 72.319 A 4.764 4.764 0 0 0 300.1 73.102 Q 295.9 78.202 290.15 81.352 A 34.393 34.393 0 0 1 287.449 82.688 Q 283.315 84.502 279.9 84.502 A 19.888 19.888 0 0 1 278.923 84.478 Q 277.052 84.386 275.534 83.933 A 8.254 8.254 0 0 1 270.4 79.902 Q 278.155 77.996 282.952 75.204 A 20.43 20.43 0 0 0 287.15 72.052 Q 292.1 67.102 292.1 60.202 A 16.681 16.681 0 0 0 291.792 56.915 A 11.46 11.46 0 0 0 288.6 50.852 Q 285.1 47.402 279.3 47.402 Q 272.8 47.402 267.65 50.902 Q 262.5 54.402 259.6 60.352 Q 256.7 66.302 256.7 73.202 A 27.897 27.897 0 0 0 257.281 79.046 A 18.867 18.867 0 0 0 262.5 88.802 Q 268.3 94.502 278.8 94.502 Q 286.5 94.502 293.25 90.702 A 53.631 53.631 0 0 0 295.014 89.665 Q 300.499 86.295 303.7 82.402 A 6.749 6.749 0 0 0 304.603 81.053 Q 305.6 79.1 305.6 76.202 Q 305.6 74.971 305.343 74.05 A 4.376 4.376 0 0 0 304.85 72.902 A 3.165 3.165 0 0 0 304.55 72.494 Z M 268.8 71.902 L 268.8 72.102 A 31.232 31.232 0 0 0 272.835 70.87 Q 274.881 70.08 276.504 69.053 A 15.789 15.789 0 0 0 278.1 67.902 A 10.841 10.841 0 0 0 280.036 65.871 A 7.5 7.5 0 0 0 281.5 61.402 A 5.579 5.579 0 0 0 281.353 60.085 A 3.877 3.877 0 0 0 280.45 58.352 A 3.462 3.462 0 0 0 278.352 57.257 A 4.943 4.943 0 0 0 277.6 57.202 A 6.081 6.081 0 0 0 273.424 58.882 Q 272.306 59.889 271.35 61.502 Q 268.8 65.802 268.8 71.902 Z" id="5" vector-effect="non-scaling-stroke"/></g></svg>