<svg width="209.9" height="64.7" viewBox="0 0 209.9 64.7" xmlns="http://www.w3.org/2000/svg"><g id="svgGroup" stroke-linecap="round" fill-rule="evenodd" font-size="9pt" stroke="#000" stroke-width="0.25mm" fill="#000" style="stroke:#000;stroke-width:0.25mm;fill:#000"><path d="M 11.8 64.7 L 0 64.7 L 0 8.8 L 8.9 8.8 L 8.9 0 L 38.5 0 L 38.5 8.8 L 47.5 8.8 L 47.5 38.5 L 38.5 38.5 L 38.5 47.3 L 11.8 47.3 L 11.8 64.7 Z M 11.8 12.5 L 11.8 34.8 L 35.6 34.8 L 35.6 12.5 L 11.8 12.5 Z" id="0" vector-effect="non-scaling-stroke"/><path d="M 71.5 64.7 L 59.7 64.7 L 59.7 17.5 L 71.5 17.5 L 71.5 64.7 Z M 71.5 12.5 L 59.7 12.5 L 59.7 0 L 71.5 0 L 71.5 12.5 Z" id="1" vector-effect="non-scaling-stroke"/><path d="M 95.5 64.7 L 83.7 64.7 L 83.7 52.3 L 92.6 52.3 L 92.6 43.6 L 101.4 43.6 L 101.4 38.5 L 92.6 38.5 L 92.6 29.9 L 83.7 29.9 L 83.7 17.5 L 95.5 17.5 L 95.5 26.2 L 104.4 26.2 L 104.4 34.8 L 110.4 34.8 L 110.4 26.2 L 119.3 26.2 L 119.3 17.5 L 131.2 17.5 L 131.2 29.9 L 122.2 29.9 L 122.2 38.5 L 113.4 38.5 L 113.4 43.6 L 122.2 43.6 L 122.2 52.3 L 131.2 52.3 L 131.2 64.7 L 119.3 64.7 L 119.3 56.1 L 110.4 56.1 L 110.4 47.3 L 104.4 47.3 L 104.4 56.1 L 95.5 56.1 L 95.5 64.7 Z" id="2" vector-effect="non-scaling-stroke"/><path d="M 176.9 64.7 L 147.3 64.7 L 147.3 56.1 L 138.4 56.1 L 138.4 26.2 L 147.3 26.2 L 147.3 17.5 L 176.9 17.5 L 176.9 26.2 L 185.9 26.2 L 185.9 38.5 L 174 38.5 L 174 29.9 L 150.2 29.9 L 150.2 34.8 L 168.1 34.8 L 168.1 47.3 L 150.2 47.3 L 150.2 52.3 L 174 52.3 L 174 43.5 L 185.9 43.5 L 185.9 56 L 176.9 56 L 176.9 64.7 Z" id="3" vector-effect="non-scaling-stroke"/><path d="M 209.9 64.7 L 198.1 64.7 L 198.1 0 L 209.9 0 L 209.9 64.7 Z" id="4" vector-effect="non-scaling-stroke"/></g></svg>